<?xml version="1.0" encoding="utf-8"?>
<svg id="master-artboard" viewBox="0 0 533.1656494140625 499.4723205566406" version="1.1" xmlns="http://www.w3.org/2000/svg" x="0px" y="0px" style="enable-background:new 0 0 1400 980;" width="533.1656494140625px" height="499.4723205566406px"><rect id="ee-background" x="0" y="0" width="533.1656494140625" height="499.4723205566406" style="fill: rgb(255, 255, 255); fill-opacity: 0; pointer-events: none;"/><defs><style id="ee-google-fonts">@import url(https://fonts.googleapis.com/css?family=Dancing+Script:400,700);</style><radialGradient id="gradient-0" gradientUnits="objectBoundingBox" cx="0.5" cy="0.5" r="0.5">
                <stop offset="0" style="stop-color: #ffffff"/>
                <stop offset="1" style="stop-color: #cccccc"/>
              </radialGradient></defs><g transform="matrix(2.023958206176758, 0, 0, 2.023958206176758, -2266.1949005126953, -139.62823486328125)"><g transform="matrix(1, 0, 0, 1, 0, 0)">
	<path class="st5" d="M1228.4,260.7l6.9-3.6c1.1,1.1,0.4,1.9,0.9,2.9c-0.6,1.7-1.9,2.3-3.2,2.9c-2.7,1.3-5.3,2.7-7.3,5.1&#10;&#9;&#9;c-0.6,0.7-1.5,1.1-2.3,1.5l-16.7,9.1c-2.3,1.2-4.5,2.5-6.4,4.4c-0.6,0.6-1.2,1-2.3,0.2c-1.6-1.1-1.6,0.9-2.6,1&#10;&#9;&#9;c-0.9,0-1.8,0-2.4-2.1c1.3-2.5,4.1-2.5,5.9-4.2l0.4,0.3l0.3-0.1l0.3-0.2c0.2-0.2,0.3-0.4,0.2-0.8l0.8-0.3c0.8,0.5,1.2,0.2,1.3-0.7&#10;&#9;&#9;l1.5-0.7c1,1.1,0.4-0.3,0.6-0.5c2-1.1,4.4-1.7,6-3.5c2.2-2.3,5.6-2.1,7.9-4.1c2.2-2,4.4-3.8,6.7-5.6c0.4-0.3,1-0.2,1.5-0.3&#10;&#9;&#9;c0.5,0.4,1,0.5,1.4,0.3c0.3-0.1,0.6,0,0.9,0.1c0.5,0.3,1,0.5,1.3,0.3c0.2-0.1,0.4-0.2,0.6-0.3c0,0,0.3-0.1,0.3-0.1s0.3-0.1,0.3-0.1&#10;&#9;&#9;c0,0,0.2-0.1,0.2-0.1s-0.2,0.1-0.3,0.1c-0.2,0.1-0.4,0.2-0.6,0.3c-0.2,0.1-0.4,0.2-0.7,0.3c-0.3,0-0.6-0.1-0.9-0.4&#10;&#9;&#9;C1228.3,261.4,1228.2,261,1228.4,260.7z" style="fill: rgb(255, 199, 15); opacity: 1; fill-opacity: 1; stroke: rgb(255, 182, 25); stroke-width: 3;"/>
	<path class="st5" d="M1341.7,184.2c-3.9,3.6-7.6,7.3-11.7,10.7c-4.8,3.9-9.9,7.6-14.8,11.3c-0.4,0.3-0.9,0.5-1.4,0.8&#10;&#9;&#9;c-0.5-0.1-0.9-0.1-1.3,0c-1.2,0.2-1.2,2.3-3.6,0.9c0.6-3.1,2.9-4.7,5.1-6.2c7.7-5.1,14.8-10.9,21.5-17.1c0.7,0,1.3-0.1,1.1-1.1&#10;&#9;&#9;l2.4-1.1c0.3,0.4,0.7,0.6,1,0.6c0.4,0.1,0.7,0.3,1.1,0.6L1341.7,184.2z" style="fill: rgb(255, 199, 15); opacity: 1; fill-opacity: 1; stroke: rgb(255, 182, 25); stroke-width: 3;"/>
	<path class="st5" d="M1148.3,168.4l1.3,1l0,0c1.2-0.4,1.9-0.1,2.5,0.5c1.1,1.1,2.3,2.1,3.3,3.3c1.4,1.7,3.1,3.1,5.3,4&#10;&#9;&#9;c0.7,0.3,1.2,1,1.8,1.5c-0.1,0.9,0.5,1,1.3,0.8c2,2.4,5,3.8,6.6,6.6c0.9,2.5,2.8,4.2,4.4,6.1c0.7,0.8,3,0.9,0.1,3.8&#10;&#9;&#9;c-2.1-1.9-4.4-3.6-6.4-5.7c-1.7-1.8-3.6-3.3-5.7-4.7c-1.9-1.3-3.3-3.2-4.9-4.9c-0.1-0.1-0.1-0.3-0.2-0.3c-3.9-1.7-6.3-5-9.7-7.1&#10;&#9;&#9;c-1-0.6-1.4-1.5-1.6-2.6C1146.5,169.6,1147.2,168.8,1148.3,168.4z" style="fill: rgb(255, 199, 15); opacity: 1; fill-opacity: 1; stroke: rgb(255, 182, 25); stroke-width: 3;"/>
	<path class="st5" d="M1180.7,241l0.3-0.8c0.8-0.4,1-0.9,0-1.6c0.8-2.5,1.5-5,3-7.3c0.6-0.9,0.9-1.9,0.8-3c-0.1-0.8-0.3-1.7,0.6-2.2&#10;&#9;&#9;c1.7-1,1.9-2.3,1.8-3.9c-0.1-1.5,1.3-2.6,2.9-3.6l0.8,0.2c0.8,0.3,1.3,0.7,1.7,1.2c0.3,0.3,0.4,0.6,0.6,0.9l-0.9,2.1&#10;&#9;&#9;c-0.5,0.1-0.5,0.4-0.2,0.7c-1.1,4.1-2.9,8-5.3,11.8c-1.2,2-2.1,4-2.3,6.2c-0.1,1.3-0.3,2.6-1.7,3.5c-2-0.8-1.3-2-2.5-2.9l0.2-0.8&#10;&#9;&#9;C1181,241.6,1181.1,241.4,1180.7,241z" style="fill: rgb(255, 199, 15); opacity: 1; fill-opacity: 1; stroke: rgb(255, 182, 25); stroke-width: 3;"/>
	<path class="st5" d="M1310.9,249.5c0.4,5,1.8,9.9,1.7,15c0,2.8,1.4,5.5,2.6,8.2c0.8,1.7,1.2,3.4,1.4,5.2c0.2,3.1,0.7,6.1,1,9.2&#10;&#9;&#9;c-0.8,0.6-1.8,0.8-2.8,0.5c-1.2-1.9-3.3-3.6-1.2-6.1c0.9-1.7,0.6-3.3-0.8-4.6c-2.4-2.9-2.5-6.3-3.9-9.4c-0.3-0.5,0.3-1.3,0.4-2&#10;&#9;&#9;c1-1.9,0.9-3.7,0.6-5.4c-0.1-0.5-0.1-1,0-1.5c0.3-0.7-0.3-1.2-0.7-1.8l-0.1-0.3l0-0.3c0-0.6,0.9-1.4-0.4-1.7l-0.2-0.2l0-0.3&#10;&#9;&#9;C1310.6,252.6,1306.6,250.8,1310.9,249.5z" style="fill: rgb(255, 199, 15); opacity: 1; fill-opacity: 1; stroke: rgb(255, 182, 25); stroke-width: 3;"/>
	<path class="st5" d="M1275.6,139.3c0.4,0.2,1,0.4,1,0.7c0.8,3.6,2.2,7,4.1,10.1l-1.3-1c1.5,0.1,3.1,0,4.7-0.2&#10;&#9;&#9;c0.3,0,0.6-0.2,0.8-0.1c4.9,2.5,10.3,0.6,15.4,1.8l0.8,0.2c0.4,0.9,1.8,0.7,1.1,2.4c-0.8,2.2-1.8,0.7-2.7,0.3&#10;&#9;&#9;c-4.4,0.1-8.8,0.3-13.1-0.6l-3-0.6c-0.2-0.5-0.5-0.5-0.8,0l-3.1-0.5c-0.1-0.3-0.3-0.5-0.4-0.6l-0.3-0.2l0,0c0-0.1,0-0.1,0-0.2&#10;&#9;&#9;c0,0-0.1-0.3-0.1-0.3s-0.5-0.1-0.4-0.1c0,0-0.6,0.2-0.6,0.2c-2.2-1.9-3.8-4.1-3.6-7.2c0.9-0.4,0.1,0.5,0.5-0.1&#10;&#9;&#9;c0.3-0.5-0.2-0.5-0.6-0.5l-0.2-0.8c0.3-0.4,0.2-0.6-0.3-0.7l-0.3-0.8C1273.8,139.7,1274.6,139.3,1275.6,139.3z" style="fill: rgb(255, 199, 15); opacity: 1; fill-opacity: 1; stroke: rgb(255, 182, 25); stroke-width: 3;"/>
	<path class="st5" d="M1164.8,157.3c-1.4,1.5-3,1.5-4.6,1.8c-2.2-1.7-4.2,0.2-6.3-1.2c-0.2-0.4-0.4-0.8-0.4-1.2c0-0.4,0-0.7,0-0.7&#10;&#9;&#9;c3.1-0.9,6.3-1.7,9.3-2.9c5.2-2,10.6-2.6,15.8-4.2c0.7-0.2,1.3,0.2,1.8,1.3c-0.4,3.3-2.7,1.8-3.7,3.8c-3.6,1.7-7.4,2.9-11.3,3&#10;&#9;&#9;C1165,156.2,1164.8,156.4,1164.8,157.3z" style="fill: rgb(255, 199, 15); opacity: 1; fill-opacity: 1; stroke: rgb(255, 182, 25); stroke-width: 3;"/>
	<path class="st5" d="M1299.5,153.6c0.2,0,0.5-0.1,0.7-0.1c1.1-0.2,1.2-1.2,0.8-2.6c0.6,0,1.3,0,1.9,0.1c4.5,0.8,9,0.9,13.6,0&#10;&#9;&#9;c3.3-0.7,6.5-0.4,9.4,1.8c0.2,0.4,0.3,0.9,0.6,0.5c0.5-0.6-0.1,0.4,0-0.6c1.3-0.7,2.4-0.6,3.4,0.5c-0.4,1.4,1,0.8,0.6,2.1&#10;&#9;&#9;c-3.2,1.4-6.2,0.1-9.2-0.3c-4.4-0.5-8.7-0.6-13.2,0.2c-1.1,0.2-2.1,0.3-2.9-0.9c-0.1-0.3-0.3-0.6-0.5-0.7c0.2,0.2,0.4,0.4,0.5,0.7&#10;&#9;&#9;C1303.2,155.9,1301.3,155,1299.5,153.6z" style="fill: rgb(255, 199, 15); opacity: 1; fill-opacity: 1; stroke: rgb(255, 182, 25); stroke-width: 3;"/>
	<path class="st5" d="M1192.1,150.1c-2.8,1-5.5,2.6-8.4,2.5c-0.7-1.8-2.3,1.5-2.6-2.3c0.3-1.5,0.8-2.9,1.8-2.7&#10;&#9;&#9;c3.1,0.7,5.7-1.5,8.6-2c2.4-0.4,4.8-1.1,7.3-0.4c0.9,0.3,1.9,0.4,2.7-0.3c1.8-1.5,3.7-0.6,5.7,0.3c0.4,4.7-2.5,2.3-3.3,4.4&#10;&#9;&#9;c-1.8,0.3-3.7,1-5.6-0.1C1195.9,148.2,1193.9,148.5,1192.1,150.1z" style="fill: rgb(255, 199, 15); opacity: 1; fill-opacity: 1; stroke: rgb(255, 182, 25); stroke-width: 3;"/>
	<path class="st5" d="M1174.8,195.9c-0.6-3.5-3.2-5.4-5.2-7.6c-0.3-0.3-0.8-0.4-0.8-0.8c-0.1-1,0.9-1.2,1.6-1.6&#10;&#9;&#9;c6.3,5.5,12.6,11.1,17.3,18.2c0.1,0.2,0.1,0.6,0.2,0.8c-0.8,1.5-1.7,1.2-2.5,1.5c-0.5-0.2-1.3-0.1-1.5-0.5&#10;&#9;&#9;C1181.2,202.2,1178,199.1,1174.8,195.9z" style="fill: rgb(255, 199, 15); opacity: 1; fill-opacity: 1; stroke: rgb(255, 182, 25); stroke-width: 3;"/>
	<path class="st5" d="M1241.3,95.1c-0.3,1.4-0.9,2.6-2.7,3c-2.1-0.3-1.5,1.3-2.3,1.8c0.1,0-0.2,0.1-0.2,0.1s0.1,0.1,0.2,0.1&#10;&#9;&#9;c0.4,0.2,0.5,0.4,0.4,0.6c-1.9,3.8-3.6,7.6-6.6,10.8c-1.1-0.3-2.1-0.1-3.3-0.8c-0.1-0.4-0.5-1-0.3-1.3c1.5-1.8,2.2-4.1,3.3-6.1&#10;&#9;&#9;c1.9-3.4,4.3-6.4,6.3-9.8c0.5-0.9,1.8-0.5,2.9-0.5C1240.7,93.4,1240.7,94.3,1241.3,95.1z" style="fill: rgb(255, 199, 15); opacity: 1; fill-opacity: 1; stroke: rgb(255, 182, 25); stroke-width: 3;"/>
	<path class="st5" d="M1259.1,105.7l-1.4-2.9c0.4-1.4-1-2.2-0.5-3.6c-2.2-3.2-3.3-6.9-3.8-10.9c1.9-1-0.8-1.4,1-2.3&#10;&#9;&#9;c0.6,0.5,1.5,0.9,1.7,1.6c1.3,3.6,2.5,7.2,3.8,10.8c-0.1,3.1,2.8,4.8,2.6,7.8l0-0.1c0.7,0.2,0.9,0.6,0.7,1.3l0.2,0.3&#10;&#9;&#9;c0.9,0.3,1.2,0.9,0.9,1.8c0.2,0.1,0.3,0.3,0.2,0.5c-0.6,0.7-0.3,0.8,0.5,0.7l0,0.3c0.7,0.2,0.9,0.6,0.7,1.3l0.3,1.4&#10;&#9;&#9;c-0.2,0.4-0.1,0.6,0.3,0.7l0.7,1.4c-0.3,0.7,0.6,1.2-0.2,2.1c-0.5,0.4-1,0.5-1.5,0.5c-2.7-3.6-4-7.9-5.8-11.9&#10;&#9;&#9;C1259.7,105.9,1259.6,105.7,1259.1,105.7z" style="fill: rgb(255, 199, 15); opacity: 1; fill-opacity: 1; stroke: rgb(255, 182, 25); stroke-width: 3;"/>
	<path class="st5" d="M1218.5,123.7c-0.5-1.4-0.7-2.6,0.5-3.4c1.7-1.1,2.2-2.8,2.8-4.5c0.7-2,1.3-4.3,4.8-4.6&#10;&#9;&#9;c1.2,0.5,1.8,1.3,2.2,2.1c-2,4.3-3.7,8.7-7.5,12c-0.7,0.1-1.4-0.1-2.2-0.6C1218.7,124.4,1218.4,124,1218.5,123.7z" style="fill: rgb(255, 199, 15); opacity: 1; fill-opacity: 1; stroke: rgb(255, 182, 25); stroke-width: 3;"/>
	<path class="st5" d="M1203.8,149.7c-0.3-1-0.3-1.9,0.4-2.1c1.1-0.3,2.2-0.9,2.9-2.3c0.9-0.5,1.8-0.8,2.8-1l-5,3.6&#10;&#9;&#9;c0.5-1.1,1.2-2.1,2.2-3c2.4-2.2,4.3-4.7,6.4-7.1c2.8,1.1,2.1,2,1.6,2.8c-0.7,1-2.4,1.5-1.5,3.3l-4,6.2l1-0.7L1203.8,149.7z" style="fill: rgb(255, 199, 15); opacity: 1; fill-opacity: 1; stroke: rgb(255, 182, 25); stroke-width: 3;"/>
	<path class="st5" d="M1263.5,258.6l8.6,5.9c1.7,1.2,3.5,2.1,4.8,3.9c0,1.6,1.8,1.6,0.7,4.1c-2.5-0.4-4.4-2-6.2-3.6&#10;&#9;&#9;c-2.3-1.9-4.8-3.4-7.2-5.1c-0.8-0.6-1.6-1.3-2.4-2C1261.2,260.1,1261.8,259.1,1263.5,258.6z" style="fill: rgb(255, 199, 15); opacity: 1; fill-opacity: 1; stroke: rgb(255, 182, 25); stroke-width: 3;"/>
	<path class="st5" d="M1305.5,228.4c-0.4-0.6-1-1.1-1.1-1.7c-0.7-3.7-1.4-7.4-2.5-11l-0.4,1.3c1.2-1.5,2.4-3.1,3.4-4.8&#10;&#9;&#9;c0.5-0.9,1-1.9,2.3-2.1c1.1,0.5,1.4-1.5,3.1,0.9c0.5,1.6-0.5,1.7-1.7,1.6c-0.2,0.1-1.3-0.6-0.4,0.6c-0.9,2.6-2.4,4.7-4,6.6l1.6-4.8&#10;&#9;&#9;c0.5,1.9,0.9,3.8,1.3,5.6c0.1,0.3-0.5,0.8-0.8,1.1c-1-0.3-1-1-1.1-1.6c0.1,0.6,0.1,1.3,1.1,1.6c1.1,0.9,2,1.8,0.5,3.1l-0.4-0.1&#10;&#9;&#9;l0.4,0.1c0.2,0.2,0.2,0.4,0.1,0.6C1306.8,226.5,1307.5,227.5,1305.5,228.4z" style="fill: rgb(255, 199, 15); opacity: 1; fill-opacity: 1; stroke: rgb(255, 182, 25); stroke-width: 3;"/>
	<path class="st5" d="M1220.6,127.4c0.6,1.6-0.1,2.8-0.8,3.8c-1.2,2-2.1,4.1-2.1,6.6c0,1.7-0.7,3.1-2.7,3.7&#10;&#9;&#9;c-1.1-1.6,1.2-2.5-1.5-4.4c-0.1-2.8-0.5-5.6,1.7-7.5c1.2-1,1-2.9,1.4-4.4c0.2-0.8,0.4-1.5,1.8-1.5l0.7,0.7&#10;&#9;&#9;C1220.8,125.5,1219.2,126.3,1220.6,127.4z" style="fill: rgb(255, 199, 15); opacity: 1; fill-opacity: 1; stroke: rgb(255, 182, 25); stroke-width: 3;"/>
	<path class="st5" d="M1177.5,284c-0.6,2.7-0.8,5.4-0.7,8.2l-0.4-0.3c0.6-0.5,1.3-1,1.9-1.6c1.1-0.9,2.5-1.3,3.7-2&#10;&#9;&#9;c2,3.6-1.3,2.8-0.8,5.2c-0.5,1.5-1.4,2.4-2.4,3l-8.5,4.7l1.5-9.8c0.2-1.1,0.6-2.2,0.9-3.2c0.6-2.1,1.2-4.2,0.7-6.5&#10;&#9;&#9;c0-0.2,0.3-0.4,0.5-0.6c0.4-0.2,0.9-0.3,1.6-0.2C1178.4,281.7,1175.9,283.1,1177.5,284z" style="fill: rgb(255, 199, 15); opacity: 1; fill-opacity: 1; stroke: rgb(255, 182, 25); stroke-width: 3;"/>
	<path class="st5" d="M1239.3,92.4c0.5-3.9,3.4-6.6,5.2-9.9c0.3-0.5,1.2-0.5,2.1-0.1c1.3,0.5,1.9,1.2,2,2c0.1,0.3,0.2,0.7,0,0.8&#10;&#9;&#9;c-2.7,2.8-3.6,6.6-6.6,9.2c-0.1,0.1-0.3,0.1-0.4,0.2C1240.7,93.9,1240.1,93.1,1239.3,92.4z" style="fill: rgb(255, 199, 15); opacity: 1; fill-opacity: 1; stroke: rgb(255, 182, 25); stroke-width: 3;"/>
	<path class="st5" d="M1236.1,260c-0.9-1.1-0.8-2-0.9-2.9c1.9-2.7,4.7-4,7.2-5.6l1.9-1.3l3.1,1.3c1.1,0.5,2.3,0.9,3.5,1.1&#10;&#9;&#9;c0.5,0.1,0.6,0.9,0.9,1.4c0,1.1-0.6,2-1.4,2.7c-1.9,0.1-3.6-0.4-5.1-1.2l-0.4-0.2l-0.3,0.2c-1.1,0.7-2.3,1.2-3.5,1.9&#10;&#9;&#9;C1239.5,258.3,1237.8,259.1,1236.1,260z" style="fill: rgb(255, 199, 15); opacity: 1; fill-opacity: 1; stroke: rgb(255, 182, 25); stroke-width: 3;"/>
	<path class="st5" d="M1351.5,156.9c-3.2-0.7-6.5-1.1-9.9-0.7c-2.2,0.3-4.3-0.4-6.5-0.6c-0.7-1.7-2.4,0.1-3-2&#10;&#9;&#9;c1.1-0.9,2.1-0.9,3.1-0.8c4.2,0.2,8.4,1,12.8-0.2c0.3-0.1,0.6,0.5,1,0.8l0-0.1l1.5,0.2C1351.9,153.2,1353,153.5,1351.5,156.9z" style="fill: rgb(255, 199, 15); opacity: 1; fill-opacity: 1; stroke: rgb(255, 182, 25); stroke-width: 3;"/>
	<path class="st5" d="M1192.8,282.1l2.3,0.9c0.8,1,0.8,1.8,0.5,2.4c-3.8,1.8-7.7,3.4-11,6.1c-3.5-4,0.6-2.9,0.1-4.9&#10;&#9;&#9;c0.8-2.6,3.1-2.6,4.9-3.4C1190.6,282.8,1191.8,282.5,1192.8,282.1z" style="fill: rgb(255, 199, 15); opacity: 1; fill-opacity: 1; stroke: rgb(255, 182, 25); stroke-width: 3;"/>
	<path class="st5" d="M1266.5,117.7l0.5-2c1,0.4,1.5,1.2,1.7,2.1c0.8,2.9,1.5,5.8,3.2,8.3c0.8,1.2,0.9,2.7,0.6,4.3&#10;&#9;&#9;c-2.2,1.5-1.8-0.4-2.9-0.2l-3.1-5.8c-0.6-1.1-1.2-2.3-0.4-3.9c1.1-0.9,0.1-1.2,0.1-1.7C1266.1,118.4,1266.2,118.1,1266.5,117.7z" style="fill: rgb(255, 199, 15); opacity: 1; fill-opacity: 1; stroke: rgb(255, 182, 25); stroke-width: 3;"/>
	<path class="st5" d="M1277.6,272.5l-0.7-4.1c4.2,1.5,7.5,4.7,10.9,7.7c0.1,0.4,0.1,0.9,0.1,1.3c-0.1,1.1-0.4,2-1.3,2.8&#10;&#9;&#9;L1277.6,272.5z" style="fill: rgb(255, 199, 15); opacity: 1; fill-opacity: 1; stroke: rgb(255, 182, 25); stroke-width: 3;"/>
	<path class="st5" d="M1180.3,242.5c1.9,0.8,2.5,1.8,2.5,2.9c0.6,1.7,1.2,3.3-1,4.5c-0.2,0.1-0.4,0.2-0.7,0.3c0,0,0.3,0.2,0.3,0.2&#10;&#9;&#9;c0,0,0.3,0.2,0.3,0.2l-0.8,3c-0.9,0.3-1.8,0.2-2.5-0.4c-0.3-0.4-0.8-0.8-0.8-1.2C1177.8,248.8,1177.6,245.4,1180.3,242.5z" style="fill: rgb(255, 199, 15); opacity: 1; fill-opacity: 1; stroke: rgb(255, 182, 25); stroke-width: 3;"/>
	<path class="st5" d="M1134.9,163.2c-0.5-0.1-1-0.2-1.4-0.4l-1.6-0.6l2.2-1.4c2.3-1.4,4.8-1.4,7.2-2.7c0.4-0.2,1,0.5,1.5,0.8&#10;&#9;&#9;c1,1.9,0.2,3-0.2,4.3c-2.2,2.3-5,1.8-7.6,2.3c0,0-0.3-0.3-0.3-0.3c0,0,0,0,0,0l1.8-5.6c0,0-0.1,0.4-0.1,0.4l0,0.4&#10;&#9;&#9;c0,0,0.1,0.3,0.1,0.3c0.1,0.2,0.1,0.5,0,0.8c-0.1,0.4-0.3,0.7-0.6,1.1C1135.5,163,1135.2,163.2,1134.9,163.2z" style="fill: rgb(255, 199, 15); opacity: 1; fill-opacity: 1; stroke: rgb(255, 182, 25); stroke-width: 3;"/>
	<path class="st5" d="M1175.4,269.6c-0.2-0.7-0.7-1.4-0.5-2c0.9-3.3,1-6.8,2.4-10.1c1.1,0.1,2.2,0.1,3,0.8c-0.1,2-0.2,4.1-0.2,6.1&#10;&#9;&#9;c0,1.2-0.6,2.2-1.5,3.1C1177.4,268.3,1177.6,269.6,1175.4,269.6z" style="fill: rgb(255, 199, 15); opacity: 1; fill-opacity: 1; stroke: rgb(255, 182, 25); stroke-width: 3;"/>
	<path class="st5" d="M1306.1,293.5c-3.2-1.2-6.4-2.6-8.4-5.9c0-0.8-0.6-1.6,0.6-2.7c3.2,1.7,6.7,3.1,9.3,5.8&#10;&#9;&#9;C1307.5,291.8,1307,292.8,1306.1,293.5z" style="fill: rgb(255, 199, 15); opacity: 1; fill-opacity: 1; stroke: rgb(255, 182, 25); stroke-width: 3;"/>
	<path class="st5" d="M1298.3,284.8l-0.6,2.7c-3.7-1.4-7-3.4-9.7-6.6c-0.1-1.3-0.5-2.4-0.8-3.7l0.6-1.2c2.2,1.7,4.5,3.3,6.6,5&#10;&#9;&#9;c0.6,0.5,1,1.3,1.4,1.9c-0.2,1.7,0.8,1.4,1.6,1.4L1298.3,284.8z" style="fill: rgb(255, 199, 15); opacity: 1; fill-opacity: 1; stroke: rgb(255, 182, 25); stroke-width: 3;"/>
	<path class="st5" d="M1306.1,293.5l1.6-2.8c1.8,0.8,3.6,1.5,5.4,2.4l1.7,0.8l-0.4-1.8l-0.1-0.5c-0.3-1.2-0.2-2.5,0.5-3.8l2.8-0.5&#10;&#9;&#9;c0.3,1.4,0.7,2.8,1.1,4.1l2.2,10.1l-9.8-4.6C1309.2,296,1307.5,295,1306.1,293.5z" style="fill: rgb(255, 199, 15); opacity: 1; fill-opacity: 1; stroke: rgb(255, 182, 25); stroke-width: 3;"/>
	<path class="st5" d="M1340.6,183.7l-1.4-1.4c2.6-2.4,4.8-5.4,8-7.2c2.1,1.2,0.9-3.5,4.3-0.1c-0.4,2.5-2.2,3.7-3.7,5.2&#10;&#9;&#9;c-2.9-0.9-2.7,1.9-4.2,2.5l-1.8,1.4l0.1,0C1341.4,184.1,1341,183.9,1340.6,183.7z" style="fill: rgb(255, 199, 15); opacity: 1; fill-opacity: 1; stroke: rgb(255, 182, 25); stroke-width: 3;"/>
	<path class="st5" d="M1351.5,156.9c0.3-1.9-0.6-2.4-1.1-3.4c0.1-0.1,0.3-0.3,0.4-0.3c2.1-0.2,4.2,0.1,6.2,0.5l17,3.7l-12.4,10.6&#10;&#9;&#9;c-1.1,1-2.3,1.9-3.5,2.7l-0.5-0.7c-0.3-0.9-0.2-1.7-0.5-2.6l0.7-0.5c1,0.2,1.1-0.3,0.9-1.2c0-0.2,0-0.5,0-0.7l1-9l-3.3,2&#10;&#9;&#9;C1354.5,159,1352.9,158.4,1351.5,156.9z" style="fill: rgb(255, 199, 15); opacity: 1; fill-opacity: 1; stroke: rgb(255, 182, 25); stroke-width: 3;"/>
	<path class="st5" d="M1263.5,258.6c-0.9,0.9-1.4,2-1.7,3.2l-8.5-4c0-2,1.8-1,2.1-2.6c1.3-0.5,2.3-0.2,3.2,0.4&#10;&#9;&#9;C1260.2,256.7,1261.9,257.6,1263.5,258.6z" style="fill: rgb(255, 199, 15); opacity: 1; fill-opacity: 1; stroke: rgb(255, 182, 25); stroke-width: 3;"/>
	<path class="st5" d="M1174.4,276.4c-2.2-2.5-1.4-4.5,1-6.2c1.8-0.3,2.2,0.7,2.9,1.3l0.1,6.4C1176,278.4,1175.4,277.2,1174.4,276.4z&#10;&#9;&#9;" style="fill: rgb(255, 199, 15); opacity: 1; fill-opacity: 1; stroke: rgb(255, 182, 25); stroke-width: 3;"/>
	<path class="st5" d="M1351.4,175.1c-1.7-0.6-2.2,1.2-4.3,0.1c2.2-3,5.4-4.9,8.8-6.6c0.8,0.2,1.3,0.8,1.6,1.6&#10;&#9;&#9;c0.1,0.2,0.3,0.4,0.5,0.5l-1.1,1c-0.3,0.1-0.5,0.3-0.7,0.5c-1.2,0.8-1.9,2.1-3.8,1.9c-0.7-0.7,0.3-0.4-0.3-0.4&#10;&#9;&#9;c-0.4,0-0.2,0.5-0.1,0.8C1352.2,175.1,1352,175.3,1351.4,175.1z" style="fill: rgb(255, 199, 15); opacity: 1; fill-opacity: 1; stroke: rgb(255, 182, 25); stroke-width: 3;"/>
	<path class="st5" d="M1269.6,130.1l2.9,0.2l0.4,0.7c-0.4,2.2,2.1,3.1,1.4,5.4c0.7,0.8,1.4,1.6,1.3,2.7l-2.4,1.2l-3.5-7&#10;&#9;&#9;c0.4-0.8,0.1-1.4,0.1-2.1L1269.6,130.1z" style="fill: rgb(255, 199, 15); opacity: 1; fill-opacity: 1; stroke: rgb(255, 182, 25); stroke-width: 3;"/>
	<path class="st5" d="M1190,207.3c1.8,1,2.6,2.8,3.5,4.6l2,4.2l-0.4,0.7c-0.2,0.4-0.4,0.8-0.6,1.2c-1.2,0.5,0.1,2.1-2.1,2.2&#10;&#9;&#9;c-1.2-0.4-1.5-1-1.4-1.6c0.2-0.8,0.1-1.7,0.6-2.4l0-0.1l-0.6-1.7c-0.1-0.2-0.1-0.4-0.1-0.6c-1-0.4-1.9-0.8-2-2.2&#10;&#9;&#9;C1189.8,210.1,1185.8,210.1,1190,207.3z" style="fill: rgb(255, 199, 15); opacity: 1; fill-opacity: 1; stroke: rgb(255, 182, 25); stroke-width: 3;"/>
	<path class="st5" d="M1142.6,163.2c-0.7-1.8-0.2-3,0.2-4.3c0.9-0.4,1.9-0.9,2.8-1.3c0.6-0.2,1.2-0.5,1.8,0.5c0.6,1,0.8,2,0.4,3.2&#10;&#9;&#9;C1146.3,163,1144.5,163,1142.6,163.2z" style="fill: rgb(255, 199, 15); opacity: 1; fill-opacity: 1; stroke: rgb(255, 182, 25); stroke-width: 3;"/>
	<path class="st5" d="M1310.9,249.5l-2.4,4.5l-1.4-10.2c0.6-0.6,0.9-1.5,2.6-1.2L1310.9,249.5z" style="fill: rgb(255, 199, 15); opacity: 1; fill-opacity: 1; stroke: rgb(255, 182, 25); stroke-width: 3;"/>
	<path class="st5" d="M1147.9,161.3l-0.4-3.2c1.8-1.7,3.9-1.6,6-2.1l0.2,1.6c0.7,1.2-0.4,1.8-0.1,2.9c-0.6,0.7-1.4,1.1-2.2,0.7&#10;&#9;&#9;C1150.1,160.6,1149,161.4,1147.9,161.3z" style="fill: rgb(255, 199, 15); opacity: 1; fill-opacity: 1; stroke: rgb(255, 182, 25); stroke-width: 3;"/>
	<path class="st5" d="M1305.5,228.4l1.4-2.8c1.8,1.5,1.9,3.5,2.3,5.3c0.4,1.7,0.4,3.5,0.6,5.3c-0.2,0.2-0.5,0.4-0.9,0.4&#10;&#9;&#9;c-0.4,0.1-0.5,0.1-0.6,0c-0.7-0.4-0.3-1.2-1.3-1.5l-0.6-3.9c0.8-1.2,0-2.1-0.8-3L1305.5,228.4z" style="fill: rgb(255, 199, 15); opacity: 1; fill-opacity: 1; stroke: rgb(255, 182, 25); stroke-width: 3;"/>
	<path class="st5" d="M1144.8,165.2l0.7,0.6c-0.6,1.9,1.8,2.4-0.7,5.1c-0.5,0-1.1,0.2-1.4,0c-2.3-2.1-4.4-4.2-6.7-6.3&#10;&#9;&#9;c2.6-2.7,3.8-2,4.5-0.6C1141.9,165.1,1142.7,165.9,1144.8,165.2z" style="fill: rgb(255, 199, 15); opacity: 1; fill-opacity: 1; stroke: rgb(255, 182, 25); stroke-width: 3;"/>
	<path class="st5" d="M1153.5,160.6c-0.5-1.2-0.2-2,0.1-2.9c2.1-0.6,4.3-1.7,6.5,1.4L1153.5,160.6z" style="fill: rgb(255, 199, 15); opacity: 1; fill-opacity: 1; stroke: rgb(255, 182, 25); stroke-width: 3;"/>
	<path class="st5" d="M1180.3,258.4c-1.1,0-2.1-0.2-3-0.8l0.7-1.2l-0.1,0c-1.8-1.4-0.7-2.3,0.5-3.1l2.5,0.4&#10;&#9;&#9;C1181.2,255.4,1181,256.9,1180.3,258.4z" style="fill: rgb(255, 199, 15); opacity: 1; fill-opacity: 1; stroke: rgb(255, 182, 25); stroke-width: 3;"/>
	<path class="st5" d="M1144.8,165.2c-1.5,1.2-2.7,1.7-3.2,0.7c-0.8-1.5-2.6-1.6-4.7-1.3l-0.7-0.4c0-0.7-0.1-1.3,0.7-2.2&#10;&#9;&#9;c0.9-0.6,1.5-0.4,2.2-0.4c1.8-0.1,2.8,0.7,3,2.3l1,0.9c0.4,0,0.9,0,1.3,0.1l0.4,0.1L1144.8,165.2z" style="fill: rgb(255, 199, 15); opacity: 1; fill-opacity: 1; stroke: rgb(255, 182, 25); stroke-width: 3;"/>
	<path class="st5" d="M1174.4,276.4l3.9,1.5l-0.6,3.1c-0.6,0.2-1.3,0.3-2,0.3l-1.8-0.2L1174.4,276.4z" style="fill: rgb(255, 199, 15); opacity: 1; fill-opacity: 1; stroke: rgb(255, 182, 25); stroke-width: 3;"/>
	<path class="st5" d="M1311,259.6c0.4,1.6,0.2,3.3-0.5,5c-0.2,0.3-0.8,0.7-1.2,1c-0.9-2.3-1.1-4.7,0-7.2l0.8,0&#10;&#9;&#9;C1310.3,258.8,1310.3,259.3,1311,259.6z" style="fill: rgb(255, 199, 15); opacity: 1; fill-opacity: 1; stroke: rgb(255, 182, 25); stroke-width: 3;"/>
	<path class="st5" d="M1192.1,150.1c0.3-0.9,0.6-2,1.2-2.1c1.5-0.3,3-0.5,4.5-0.4c0.7,0.1,0.6,1.2,0.4,2L1192.1,150.1z" style="fill: rgb(255, 199, 15); opacity: 1; fill-opacity: 1; stroke: rgb(255, 182, 25); stroke-width: 3;"/>
	<path class="st5" d="M1249.5,80.5c-0.5-0.4-0.6-0.8,0.5-1.5c0.7-0.4,1.4-0.4,1.6-0.1c0.9,1.4,2.5,2.5,1.5,4.7&#10;&#9;&#9;c-1.6,0.4-2.1-0.3-2.9-0.8C1249.7,82.2,1249.3,81.5,1249.5,80.5z" style="fill: rgb(255, 199, 15); opacity: 1; fill-opacity: 1; stroke: rgb(255, 182, 25); stroke-width: 3;"/>
	<path class="st5" d="M1190,207.3c-1.1,1.7-0.7,3-1.1,4.5c-1-0.9-2-1.9-3.1-2.8c-0.6-0.4-0.7-1.1-0.1-2.1c0.9-0.6,1.9-0.9,2.8-1.4&#10;&#9;&#9;L1190,207.3z" style="fill: rgb(255, 199, 15); opacity: 1; fill-opacity: 1; stroke: rgb(255, 182, 25); stroke-width: 3;"/>
	<path class="st5" d="M1181,150.4c0.9,0.9,1.9,0.6,2.6,2.3l-6.9,1.5c0.9-2,2.3-2.9,3.7-3.8C1180.6,150.3,1180.8,150.3,1181,150.4z" style="fill: rgb(255, 199, 15); opacity: 1; fill-opacity: 1; stroke: rgb(255, 182, 25); stroke-width: 3;"/>
	<path class="st5" d="M1255.4,255.3c0.3,0.2,0.6,0.4,0.8,0.7c0.2,0.2,0.2,0.5,0.3,0.7c-0.2,0.2-0.5,0.5-0.7,0.5&#10;&#9;&#9;c-0.8,0.2-1.7,0.4-2.5,0.6l-2.8-1.3l1.4-2.7C1253.4,253.6,1254.1,255.1,1255.4,255.3z" style="fill: rgb(255, 199, 15); opacity: 1; fill-opacity: 1; stroke: rgb(255, 182, 25); stroke-width: 3;"/>
	<path class="st5" d="M1184.7,286.6c0,1.6-0.8,2.7-0.1,4.9l-3.4,2c-0.5-2.3,0.5-3.5,0.8-5.2C1182.7,287.3,1183.6,286.8,1184.7,286.6&#10;&#9;&#9;z" style="fill: rgb(255, 199, 15); opacity: 1; fill-opacity: 1; stroke: rgb(255, 182, 25); stroke-width: 3;"/>
	<path class="st5" d="M1251.1,82.7l2,0.9l1.3,2.3c0.3,1.1,0.5,2.1,0.8,3.3c-1.4,0.2-1.2-0.7-1.9-0.9l-0.5-1.1&#10;&#9;&#9;c-0.5-0.2-0.7-0.6-0.6-1.1l-0.1-0.2C1251.3,85.1,1250,84.4,1251.1,82.7z" style="fill: rgb(255, 199, 15); opacity: 1; fill-opacity: 1; stroke: rgb(255, 182, 25); stroke-width: 3;"/>
	<path class="st5" d="M1144.8,170.9c0.2-1.7-1.1-2.8,0.7-5.1c1.1,0.7,2.2,1.4,2.8,2.6l-2,2.2L1144.8,170.9z" style="fill: rgb(255, 199, 15); opacity: 1; fill-opacity: 1; stroke: rgb(255, 182, 25); stroke-width: 3;"/>
	<path class="st5" d="M1213.6,137.2c2.3,1.8,1.9,3.1,1.5,4.4l-1.6,2.5c-1.1-1-1.4-1.8-0.7-2.4c1-0.9,1.4-2.1,0.6-3.7&#10;&#9;&#9;C1213.3,137.6,1213.4,137.4,1213.6,137.2z" style="fill: rgb(255, 199, 15); opacity: 1; fill-opacity: 1; stroke: rgb(255, 182, 25); stroke-width: 3;"/>
	<path class="st5" d="M1310.2,211l-3.1-0.9c0.4-1,0.9-1.9,1.9-2.3c0.8-0.6,1.5-1.1,2.3-1.7c0.4-0.3,0.9-0.5,1.7,0.1&#10;&#9;&#9;c0,2.1-2.3,2.2-2.4,4.2C1310.6,210.7,1310.4,210.9,1310.2,211z" style="fill: rgb(255, 199, 15); opacity: 1; fill-opacity: 1; stroke: rgb(255, 182, 25); stroke-width: 3;"/>
	<path class="st5" d="M1262.5,106.2c-1.4-2.4-3.6-4.4-2.6-7.8C1261.1,100.8,1262.6,103.2,1262.5,106.2z" style="fill: rgb(255, 199, 15); opacity: 1; fill-opacity: 1; stroke: rgb(255, 182, 25); stroke-width: 3;"/>
	<path class="st5" d="M1343.5,182.8c0.3-0.9,0.4-1.9,0.8-2.6c0.6-0.9,1.7-1,3.4,0.1C1346.8,181.6,1345.8,183,1343.5,182.8z" style="fill: rgb(255, 199, 15); opacity: 1; fill-opacity: 1; stroke: rgb(255, 182, 25); stroke-width: 3;"/>
	<path class="st5" d="M1309.7,242.6l-2.6,1.2c-0.9-1.5-0.4-3.1,0.3-4.7c0.5-0.4,1.1-0.6,1.8-0.4L1309.7,242.6z" style="fill: rgb(255, 199, 15); opacity: 1; fill-opacity: 1; stroke: rgb(255, 182, 25); stroke-width: 3;"/>
	<path class="st5" d="M1178.2,271.5l-2.9-1.3c0-0.2,0-0.4,0.1-0.5c0.6-0.9,1.5-1.6,3.1-2C1179,269,1178.5,270.2,1178.2,271.5z" style="fill: rgb(255, 199, 15); opacity: 1; fill-opacity: 1; stroke: rgb(255, 182, 25); stroke-width: 3;"/>
	<path class="st5" d="M1332,153.6c1.1,0.5,2.2,0.7,3,2c-1.5,0.4-3,0.2-4.4-0.2c-0.4-0.4-0.8-1-0.6-2.1L1332,153.6z" style="fill: rgb(255, 199, 15); opacity: 1; fill-opacity: 1; stroke: rgb(255, 182, 25); stroke-width: 3;"/>
	<path class="st5" d="M1251.1,82.7l1,3.3c-2.3-1.1-2.6-3.2-2.6-5.5L1251.1,82.7z" style="fill: rgb(255, 199, 15); opacity: 1; fill-opacity: 1; stroke: rgb(255, 182, 25); stroke-width: 3;"/>
	<path class="st5" d="M1310.7,210.4c-0.5-2.5,1.2-3.1,2.4-4.2l0.8,0.8C1312.7,208,1312.5,210,1310.7,210.4z" style="fill: rgb(255, 199, 15); opacity: 1; fill-opacity: 1; stroke: rgb(255, 182, 25); stroke-width: 3;"/>
	<path class="st5" d="M1309.2,238.7l-1.8,0.4c-1.2-1.2-0.3-2.6-0.3-3.9l1.6,1.3c1.1,0.5,0.8,1.2,0.5,1.9&#10;&#9;&#9;C1309.3,238.4,1309.4,238.5,1309.2,238.7z" style="fill: rgb(255, 199, 15); opacity: 1; fill-opacity: 1; stroke: rgb(255, 182, 25); stroke-width: 3;"/>
	<path class="st5" d="M1274.3,136.6c-0.9-1.6-2.1-3.1-1.4-5.4C1273.8,132.8,1274.9,134.3,1274.3,136.6z" style="fill: rgb(255, 199, 15); opacity: 1; fill-opacity: 1; stroke: rgb(255, 182, 25); stroke-width: 3;"/>
	<path class="st5" d="M1228.8,113.3l-2.2-2.1c0.1-0.2,0.2-0.3,0.3-0.5c1-0.1,2-0.3,3.3,0.8L1228.8,113.3z" style="fill: rgb(255, 199, 15); opacity: 1; fill-opacity: 1; stroke: rgb(255, 182, 25); stroke-width: 3;"/>
	<path class="st5" d="M1220.6,127.4c-0.8,0.1-1.6,0-1.6-0.9c0-0.7,0.1-1.4,0.1-2l2.1,0.9L1220.6,127.4z" style="fill: rgb(255, 199, 15); opacity: 1; fill-opacity: 1; stroke: rgb(255, 182, 25); stroke-width: 3;"/>
	<path class="st5" d="M1312.7,276.9c2,1.2,2.4,2.8,0.8,4.6L1312.7,276.9z" style="fill: rgb(255, 199, 15); opacity: 1; fill-opacity: 1; stroke: rgb(255, 182, 25); stroke-width: 3;"/>
	<path class="st5" d="M1175.7,281.3l2-0.3l-0.2,3C1174.9,283.3,1176.4,282.2,1175.7,281.3z" style="fill: rgb(255, 199, 15); opacity: 1; fill-opacity: 1; stroke: rgb(255, 182, 25); stroke-width: 3;"/>
	<path class="st5" d="M1138.1,162.2l-1.7,0.5c-0.6,0.3-0.8,0.2-0.7-0.4c-0.1-0.3-0.3-0.5-0.4-0.7c-0.3,0.1-0.5,0.1-0.7,0l-0.3,0.9&#10;&#9;&#9;c0.2-0.2,0.5-0.2,0.8,0.1c0.5,0.4,0.3,1,0.3,1.5c-0.2,0.1-0.4,0.2-0.5,0.3c0,0.2-0.1,0.4-0.2,0.5l1.6-5.1c0.6,0,0.8,0.5,1.6,0.2&#10;&#9;&#9;l0-0.1c0.5-0.1,0.8,0,0.8,0.5c0.2,0.1,0.4,0.3,0.5,0.4c-0.1,0.4-0.3,0.7-0.6,1C1138.3,162.1,1138.2,162.2,1138.1,162.2z" style="fill: rgb(255, 199, 15); opacity: 1; fill-opacity: 1; stroke: rgb(255, 182, 25); stroke-width: 3;"/>
	<path class="st5" d="M1138.1,162.2l1.1-1.3c1.8,0.1,2.8,0.9,2.7,2.9C1140.7,163.2,1139.8,162.1,1138.1,162.2z" style="fill: rgb(255, 199, 15); opacity: 1; fill-opacity: 1; stroke: rgb(255, 182, 25); stroke-width: 3;"/>
	<path class="st5" d="M1352,174.5c0.1-0.7,0.1-1.5,0.3-2.1c0.1-0.2,0.5-0.1,0.8-0.1c0,0.3,0,0.6-0.1,0.8c-0.1,0.4-0.4,0.7-0.6,1&#10;&#9;&#9;C1352.3,174.3,1352.2,174.4,1352,174.5z" style="fill: rgb(255, 199, 15); opacity: 1; fill-opacity: 1; stroke: rgb(255, 182, 25); stroke-width: 3;"/>
	<path class="st5" d="M1305.6,228.2c1.7,0.7,1.9,1.7,0.8,3C1305.5,230.3,1305.1,229.4,1305.6,228.2z" style="fill: rgb(255, 199, 15); opacity: 1; fill-opacity: 1; stroke: rgb(255, 182, 25); stroke-width: 3;"/>
	<path class="st5" d="M1181,238.7c0.9,0.1,2,0.2,2,0.9c0,0.6-1.1,0.6-2,0.7L1181,238.7z" style="fill: rgb(255, 199, 15); opacity: 1; fill-opacity: 1; stroke: rgb(255, 182, 25); stroke-width: 3;"/>
	<path class="st5" d="M1195.6,285.4l-0.5-2.4c0.7-0.5,1.6-0.5,2.7,0.1L1195.6,285.4z" style="fill: rgb(255, 199, 15); opacity: 1; fill-opacity: 1; stroke: rgb(255, 182, 25); stroke-width: 3;"/>
	<path class="st5" d="M1297.5,284.5c-1,0.3-1.9,0.6-2.4-0.2c-0.3-0.6,0.4-1,0.8-1.2l0.2,0.2c0.6-0.2,0.9,0,1,0.7&#10;&#9;&#9;C1297.3,284.1,1297.4,284.2,1297.5,284.5z" style="fill: rgb(255, 199, 15); opacity: 1; fill-opacity: 1; stroke: rgb(255, 182, 25); stroke-width: 3;"/>
	<path class="st5" d="M1357.5,170.1l-1.6-1.6l1-1.2C1357.9,168.6,1358.2,169.5,1357.5,170.1z" style="fill: rgb(255, 199, 15); opacity: 1; fill-opacity: 1; stroke: rgb(255, 182, 25); stroke-width: 3;"/>
	<path class="st5" d="M1336.7,183.4c1.3,1.5,1.3,1.7,0,1.5c-0.3-0.1-0.7-0.3-1.1-0.4L1336.7,183.4z" style="fill: rgb(255, 199, 15); opacity: 1; fill-opacity: 1; stroke: rgb(255, 182, 25); stroke-width: 3;"/>
	<path class="st5" d="M1257.2,99.2c0.6,1,1.1,2.1,0.5,3.6C1257.2,101.8,1256.6,100.7,1257.2,99.2z" style="fill: rgb(255, 199, 15); opacity: 1; fill-opacity: 1; stroke: rgb(255, 182, 25); stroke-width: 3;"/>
	<path class="st5" d="M1266.8,118.4c0.2,0.5,0.6,0.9,0.5,1.4c-0.1,0.7-0.8,0.6-1.3,0.6l-0.4-1.4c0.1-0.4,0.4-0.6,0.7-0.6&#10;&#9;&#9;C1266.6,118.3,1266.8,118.3,1266.8,118.4z" style="fill: rgb(255, 199, 15); opacity: 1; fill-opacity: 1; stroke: rgb(255, 182, 25); stroke-width: 3;"/>
	<path class="st5" d="M1164.8,157.3c-0.2-0.5-0.7-1.1-0.4-1.5c0.5-0.6,0.7,0.6,1,1.3C1165.2,157.2,1165,157.3,1164.8,157.3z" style="fill: rgb(255, 199, 15); opacity: 1; fill-opacity: 1; stroke: rgb(255, 182, 25); stroke-width: 3;"/>
	<path class="st5" d="M1287.2,277.3c0.8,0.7,0.9,2,0.8,3.7l-1.4-0.8L1287.2,277.3z" style="fill: rgb(255, 199, 15); opacity: 1; fill-opacity: 1; stroke: rgb(255, 182, 25); stroke-width: 3;"/>
	<path class="st5" d="M1235.5,100c0.4-1.1,1.1-2,3.1-2l-1.8,2.6L1235.5,100L1235.5,100z" style="fill: rgb(255, 199, 15); opacity: 1; fill-opacity: 1; stroke: rgb(255, 182, 25); stroke-width: 3;"/>
	<path class="st5" d="M1239.3,92.4c1.7,0.5,2.2,1.3,2.3,2.2l-0.1,0.3l-0.2,0.2l-2.3-2C1239,92.8,1239.1,92.6,1239.3,92.4z" style="fill: rgb(255, 199, 15); opacity: 1; fill-opacity: 1; stroke: rgb(255, 182, 25); stroke-width: 3;"/>
	<path class="st5" d="M1190.9,213.9l0.4,0.3l0.8,0.7l-0.1,1.4l-0.3,2.9c-0.1,0.3-0.3,0.3-0.6,0.3c-0.3-0.1-0.5-0.2-0.5-0.3&#10;&#9;&#9;c-0.2-0.2-0.3-0.3-0.5-0.5c0.2-0.9,0.3-1.8,1.2-2.5l-0.5-1.5C1190.8,214.5,1190.8,214.2,1190.9,213.9z" style="fill: rgb(255, 199, 15); opacity: 1; fill-opacity: 1; stroke: rgb(255, 182, 25); stroke-width: 3;"/>
	<path class="st5" d="M1192.7,220.1c0.3-0.8,0.7-1.6,1.8-2.1c0,1.1,0,2.2-1.3,3l-0.6-0.3C1192.1,220.5,1192.1,220.2,1192.7,220.1z" style="fill: rgb(255, 199, 15); opacity: 1; fill-opacity: 1; stroke: rgb(255, 182, 25); stroke-width: 3;"/>
	<path class="st5" d="M1188.5,205.5c-1,1.4-1.9,1.7-2.8,1.4c-0.2-0.1-0.3-0.2-0.3-0.4l2.5-1.5L1188.5,205.5z" style="fill: rgb(255, 199, 15); opacity: 1; fill-opacity: 1; stroke: rgb(255, 182, 25); stroke-width: 3;"/>
	<path class="st5" d="M1163.7,179.3c-0.5,0.2-1,0.6-1.5,0.6c-1.1,0.1-1-0.4,0.1-1.4L1163.7,179.3z" style="fill: rgb(255, 199, 15); opacity: 1; fill-opacity: 1; stroke: rgb(255, 182, 25); stroke-width: 3;"/>
	<path class="st5" d="M1308.6,254.5c1,0.4,1.1,1,0.4,1.7C1308.3,255.8,1308.3,255.2,1308.6,254.5z" style="fill: rgb(255, 199, 15); opacity: 1; fill-opacity: 1; stroke: rgb(255, 182, 25); stroke-width: 3;"/>
	<path class="st5" d="M1309.1,256.8l1.7,1.5l-0.8,0.2l-0.7-0.2C1308.9,257.9,1308.5,257.4,1309.1,256.8z" style="fill: rgb(255, 199, 15); opacity: 1; fill-opacity: 1; stroke: rgb(255, 182, 25); stroke-width: 3;"/>
	<path class="st5" d="M1204.1,274.9c0.1,0.2,0.2,0.4,0.2,0.7c0.1,0.6,0.5,1.4-0.2,1.1c-0.1-0.1-0.4-0.8-0.6-1.2&#10;&#9;&#9;C1203.7,275.2,1203.9,275,1204.1,274.9z" style="fill: rgb(255, 199, 15); opacity: 1; fill-opacity: 1; stroke: rgb(255, 182, 25); stroke-width: 3;"/>
	<path class="st5" d="M1202,276.1c0.1,1.3,0.1,2.2-1.3,0.7L1202,276.1z" style="fill: rgb(255, 199, 15); opacity: 1; fill-opacity: 1; stroke: rgb(255, 182, 25); stroke-width: 3;"/>
	<path class="st5" d="M1356.2,172.2l0.7-0.5C1357.1,172.3,1356.9,172.5,1356.2,172.2z" style="fill: rgb(255, 199, 15); opacity: 1; fill-opacity: 1; stroke: rgb(255, 182, 25); stroke-width: 3;"/>
	<path class="st5" d="M1264.2,109.5l-0.9-1.8C1264.5,107.9,1264.7,108.5,1264.2,109.5z" style="fill: rgb(255, 199, 15); opacity: 1; fill-opacity: 1; stroke: rgb(255, 182, 25); stroke-width: 3;"/>
	<path class="st5" d="M1358.6,165.6c0.4,1,0.3,1.6-0.9,1.2L1358.6,165.6z" style="fill: rgb(255, 199, 15); opacity: 1; fill-opacity: 1; stroke: rgb(255, 182, 25); stroke-width: 3;"/>
	<path class="st5" d="M1309.2,238.3l-0.5-1.9l1.2-0.2C1310.3,236.9,1310,237.6,1309.2,238.3z" style="fill: rgb(255, 199, 15); opacity: 1; fill-opacity: 1; stroke: rgb(255, 182, 25); stroke-width: 3;"/>
	<path class="st5" d="M1326.7,152.7c-0.3,1.6-0.4,0.2-0.6,0.1C1326.3,152.7,1326.5,152.6,1326.7,152.7z" style="fill: rgb(255, 199, 15); opacity: 1; fill-opacity: 1; stroke: rgb(255, 182, 25); stroke-width: 3;"/>
	<path class="st5" d="M1308.1,213.2c-1.2-1.4,0.2-0.5,0.4-0.6C1308.4,212.9,1308.3,213.1,1308.1,213.2z" style="fill: rgb(255, 199, 15); opacity: 1; fill-opacity: 1; stroke: rgb(255, 182, 25); stroke-width: 3;"/>
	<path class="st5" d="M1269.7,131.4l-0.1,2.1C1269.3,133,1269.1,132.3,1269.7,131.4z" style="fill: rgb(255, 199, 15); opacity: 1; fill-opacity: 1; stroke: rgb(255, 182, 25); stroke-width: 3;"/>
	<path class="st5" d="M1274,142.7l0.8,0.2l-0.7,0.5C1273.9,143.2,1273.9,143,1274,142.7z" style="fill: rgb(255, 199, 15); opacity: 1; fill-opacity: 1; stroke: rgb(255, 182, 25); stroke-width: 3;"/>
	<path class="st5" d="M1279,150l-0.2,1.1l0.4,0.3l0.5,0.5l-0.5,0l-0.4,0l-0.5-0.6l-0.6-0.8l0.4-0.2c0.2-0.3,0.4-0.5,0.6-0.5&#10;&#9;&#9;C1278.8,149.9,1278.9,149.9,1279,150z" style="fill: rgb(255, 199, 15); opacity: 1; fill-opacity: 1; stroke: rgb(255, 182, 25); stroke-width: 3;"/>
	<path d="M 1135.699951171875 162.1999969482422 L 1136.4000244140625 162.6999969482422 L 1136.0999755859375 164.10000610351562 L 1134.9000244140625 163.1999969482422 Z" class="st5" style="fill: rgb(255, 199, 15); opacity: 1; fill-opacity: 1; stroke: rgb(255, 182, 25); stroke-width: 3;"/>
	<path d="M 1199.9000244140625 277.1000061035156 L 1199.199951171875 279 L 1199.199951171875 279.1000061035156 L 1198.699951171875 278 Z" class="st5" style="fill: rgb(255, 199, 15); opacity: 1; fill-opacity: 1; stroke: rgb(255, 182, 25); stroke-width: 3;"/>
	<path class="st5" d="M1228.3,262.2l-2.2-0.8l1.5-0.4c0.4,0.1,0.6,0.3,0.6,0.6C1228.4,262,1228.4,262.1,1228.3,262.2z" style="fill: rgb(255, 199, 15); opacity: 1; fill-opacity: 1; stroke: rgb(255, 182, 25); stroke-width: 3;"/>
	<path d="M 1137.9000244140625 160.10000610351562 L 1136.199951171875 160 L 1134.5999755859375 164.6999969482422 L 1134.9000244140625 164.39999389648438 L 1135 165.5 L 1134.800048828125 165.60000610351562 L 1136.800048828125 159.3000030517578 Z" class="st5" style="fill: rgb(255, 199, 15); opacity: 1; fill-opacity: 1; stroke: rgb(255, 182, 25); stroke-width: 3;"/>
	<path class="st5" d="M1263.2,107.4l-0.7-1.3C1263.3,106.3,1263.4,106.7,1263.2,107.4z" style="fill: rgb(255, 199, 15); opacity: 1; fill-opacity: 1; stroke: rgb(255, 182, 25); stroke-width: 3;"/>
	<path class="st5" d="M1265.6,112.3l-0.7-1.3C1265.7,111.1,1265.9,111.6,1265.6,112.3z" style="fill: rgb(255, 199, 15); opacity: 1; fill-opacity: 1; stroke: rgb(255, 182, 25); stroke-width: 3;"/>
	<path class="st5" d="M1252.2,86.1l0.6,1.1C1252.2,87.1,1252,86.7,1252.2,86.1z" style="fill: rgb(255, 199, 15); opacity: 1; fill-opacity: 1; stroke: rgb(255, 182, 25); stroke-width: 3;"/>
	<path class="st5" d="M1264.9,110.7l-0.5-0.7L1264.9,110.7z" style="fill: rgb(255, 199, 15); opacity: 1; fill-opacity: 1; stroke: rgb(255, 182, 25); stroke-width: 3;"/>
	<path class="st5" d="M1266.2,114.3l-0.3-0.7C1266.1,113.8,1266.2,114.1,1266.2,114.3z" style="fill: rgb(255, 199, 15); opacity: 1; fill-opacity: 1; stroke: rgb(255, 182, 25); stroke-width: 3;"/>
	<path class="st5" d="M1180.7,241l0.1,0.4l-0.3,0.3C1180.4,241.5,1180.4,241.2,1180.7,241z" style="fill: rgb(255, 199, 15); opacity: 1; fill-opacity: 1; stroke: rgb(255, 182, 25); stroke-width: 3;"/>
	<path d="M 1259.0999755859375 105.69999694824219 L 1259.5 106.4000015258789 L 1259.199951171875 106.0999984741211 Z" class="st5" style="fill: rgb(255, 199, 15); opacity: 1; fill-opacity: 1; stroke: rgb(255, 182, 25); stroke-width: 3;"/>
	<path class="st5" d="M1266.8,118.4c-0.4,0.2-0.8,0.4-1.2,0.6l-0.4-0.7l1.2-0.6L1266.8,118.4z" style="fill: rgb(255, 199, 15); opacity: 1; fill-opacity: 1; stroke: rgb(255, 182, 25); stroke-width: 3;"/>
	<path d="M 1181.699951171875 250.6999969482422 L 1180.4000244140625 250.5 L 1180.4000244140625 250.5 L 1181.800048828125 249.89999389648438 L 1181.9000244140625 250.3000030517578 Z" class="st5" style="fill: rgb(255, 199, 15); opacity: 1; fill-opacity: 1; stroke: rgb(255, 182, 25); stroke-width: 3;"/>
	<path class="st5" d="M1273.5,141.3c0.3,0.1,0.4,0.3,0.3,0.7l-0.3-0.3L1273.5,141.3z" style="fill: rgb(255, 199, 15); opacity: 1; fill-opacity: 1; stroke: rgb(255, 182, 25); stroke-width: 3;"/>
	<path d="M 1282.699951171875 152.5 L 1283.5 152.39999389648438 L 1283.0999755859375 152.60000610351562 Z" class="st5" style="fill: rgb(255, 199, 15); opacity: 1; fill-opacity: 1; stroke: rgb(255, 182, 25); stroke-width: 3;"/>
	<path class="st5" d="M1297.1,283.9l-1-0.7C1296.7,283,1297.1,283.2,1297.1,283.9z" style="fill: rgb(255, 199, 15); opacity: 1; fill-opacity: 1; stroke: rgb(255, 182, 25); stroke-width: 3;"/>
	<path class="st5" d="M1228.3,262.2l-0.6-1.2l0.7-0.4l0.6,0.9C1229.1,262.5,1228.9,262.7,1228.3,262.2L1228.3,262.2z" style="fill: rgb(255, 199, 15); opacity: 1; fill-opacity: 1; stroke: rgb(255, 182, 25); stroke-width: 3;"/>
	<path class="st5" d="M1192.1,223.9c-0.2-0.3-0.1-0.5,0.2-0.7l0.1,0.4L1192.1,223.9z" style="fill: rgb(255, 199, 15); opacity: 1; fill-opacity: 1; stroke: rgb(255, 182, 25); stroke-width: 3;"/>
	<path class="st5" d="M1144.2,164.8l-1.3-0.1L1144.2,164.8z" style="fill: rgb(255, 199, 15); opacity: 1; fill-opacity: 1; stroke: rgb(255, 182, 25); stroke-width: 3;"/>
	<path class="st5" d="M1138.7,160.5l-0.8-0.5C1138.5,159.8,1138.8,160,1138.7,160.5z" style="fill: rgb(255, 199, 15); opacity: 1; fill-opacity: 1; stroke: rgb(255, 182, 25); stroke-width: 3;"/>
	<path class="st5" d="M1199.2,279c0,0.3-0.1,0.7-0.1,1c-0.1,0.4-0.4,0.3-0.5-0.1c0-0.1,0.1-0.3,0.1-0.4&#10;&#9;&#9;C1198.8,279.3,1199,279.2,1199.2,279L1199.2,279z" style="fill: rgb(255, 199, 15); opacity: 1; fill-opacity: 1; stroke: rgb(255, 182, 25); stroke-width: 3;"/>
	<path class="st5" d="M1232.4,261.6l-1.3,0.7c-0.7-0.2-0.9-0.6-0.7-1.3l1.4-0.7c0.3,0.2,0.5,0.4,0.6,0.8&#10;&#9;&#9;C1232.4,261.4,1232.4,261.6,1232.4,261.6z" style="fill: rgb(255, 199, 15); opacity: 1; fill-opacity: 1; stroke: rgb(255, 182, 25); stroke-width: 3;"/>
	<path class="st5" d="M1228.3,262.2l0.7-0.6l0.7-0.2c0.4,0.2,0.6,0.4,0.7,0.7c0.1,0.3,0.1,0.5,0,0.5L1228.3,262.2z" style="fill: rgb(255, 199, 15); opacity: 1; fill-opacity: 1; stroke: rgb(255, 182, 25); stroke-width: 3;"/>
	<path class="st5" d="M1232.4,261.6l-0.6-1.2L1232.4,261.6z" style="fill: rgb(255, 199, 15); opacity: 1; fill-opacity: 1; stroke: rgb(255, 182, 25); stroke-width: 3;"/>
	<path class="st5" d="M1230.3,262.7l-0.7-1.3l0.3-0.2l0.3-0.2c0.2,0.4,0.4,0.8,0.7,1.3L1230.3,262.7z" style="fill: rgb(255, 199, 15); opacity: 1; fill-opacity: 1; stroke: rgb(255, 182, 25); stroke-width: 3;"/>
	<path class="st5" d="M1149.5,169.4L1149.5,169.4L1149.5,169.4z" style="fill: rgb(255, 199, 15); opacity: 1; fill-opacity: 1; stroke: rgb(255, 182, 25); stroke-width: 3;"/>
	<path class="st5" d="M1192.7,220.1l-0.1,0.3l-0.1,0.3c-1.3-0.3-1.9-0.9-2-1.6c0.3,0,0.7,0,1.1,0L1192.7,220.1z" style="fill: rgb(255, 199, 15); opacity: 1; fill-opacity: 1; stroke: rgb(255, 182, 25); stroke-width: 3;"/>
	<path class="st5" d="M1314.7,284.3c-0.1-0.1-0.3-0.1-0.3-0.2c0-0.1,0.2-0.2,0.3-0.3c0.1,0.1,0.3,0.1,0.3,0.2&#10;&#9;&#9;C1315,284.1,1314.8,284.2,1314.7,284.3z" style="fill: rgb(255, 199, 15); opacity: 1; fill-opacity: 1; stroke: rgb(255, 182, 25); stroke-width: 3;"/>
	<path class="st5" d="M1310,258.6c0.2-0.1,0.5-0.2,0.8-0.2l0.2,1.2C1310.2,259.4,1310.1,259,1310,258.6z" style="fill: rgb(255, 199, 15); opacity: 1; fill-opacity: 1; stroke: rgb(255, 182, 25); stroke-width: 3;"/>
	<path class="st5" d="M1279,150c-0.3,0.1-0.6,0.2-0.9,0.3l0.4-0.3L1279,150z" style="fill: rgb(255, 199, 15); opacity: 1; fill-opacity: 1; stroke: rgb(255, 182, 25); stroke-width: 3;"/>
	<path class="st5" d="M1305.3,154.3c-0.2-0.1-0.5-0.2-0.7-0.3c-0.1-0.1-0.3-0.2-0.3-0.3c0-0.5,0.2-0.6,0.5-0.2&#10;&#9;&#9;C1305.1,153.7,1305.2,154,1305.3,154.3L1305.3,154.3z" style="fill: rgb(255, 199, 15); opacity: 1; fill-opacity: 1; stroke: rgb(255, 182, 25); stroke-width: 3;"/>
	<path class="st5" d="M1235.4,100c-0.2,0.3-0.3,0.7-0.6,1c-0.1,0.2-0.5,0.2-0.8,0.2c0-0.2-0.1-0.6,0.1-0.7&#10;&#9;&#9;C1234.5,100.3,1235,100.2,1235.4,100L1235.4,100z" style="fill: rgb(255, 199, 15); opacity: 1; fill-opacity: 1; stroke: rgb(255, 182, 25); stroke-width: 3;"/>
	<path class="st5" d="M1306.2,221.8c-1.3-0.8-2.1-1.7-1.2-3.6C1305.6,219.8,1305.9,220.8,1306.2,221.8L1306.2,221.8z" style="fill: rgb(255, 199, 15); opacity: 1; fill-opacity: 1; stroke: rgb(255, 182, 25); stroke-width: 3;"/>
	<path class="st5" d="M1305.3,214.7c0-0.1-0.1-0.3,0-0.3c0.1,0,0.3,0.1,0.4,0.1C1305.8,214.9,1305.7,215,1305.3,214.7z" style="fill: rgb(255, 199, 15); opacity: 1; fill-opacity: 1; stroke: rgb(255, 182, 25); stroke-width: 3;"/>
	<path d="M 1306.800048828125 224.89999389648438 L 1306.300048828125 224.6999969482422 L 1306.800048828125 224.89999389648438 Z" class="st5" style="fill: rgb(255, 199, 15); opacity: 1; fill-opacity: 1; stroke: rgb(255, 182, 25); stroke-width: 3;"/>
	<path class="st5" d="M1248.2,254.5c0.1-0.2,0.2-0.4,0.3-0.5c0.1,0,0.2,0.1,0.3,0.2c-0.1,0.2-0.2,0.4-0.3,0.5&#10;&#9;&#9;C1248.4,254.7,1248.3,254.6,1248.2,254.5z" style="fill: rgb(255, 199, 15); opacity: 1; fill-opacity: 1; stroke: rgb(255, 182, 25); stroke-width: 3;"/>
	<path d="M 1186.699951171875 286.20001220703125 L 1187 286.5 L 1186.699951171875 286.6000061035156 Z" class="st5" style="fill: rgb(255, 199, 15); opacity: 1; fill-opacity: 1; stroke: rgb(255, 182, 25); stroke-width: 3;"/>
	<path d="M 1180.4000244140625 250.5 L 1180.0999755859375 250.8000030517578 L 1180.4000244140625 250.5 Z" class="st5" style="fill: rgb(255, 199, 15); opacity: 1; fill-opacity: 1; stroke: rgb(255, 182, 25); stroke-width: 3;"/>
	<path class="st5" d="M1135.4,164.1l-0.9-0.7l0.8-2.5l0,0.7c-0.3,0-0.5,0-0.7,0l-0.3,0.9c0.6-0.6,1.2-0.5,1.9,0.4&#10;&#9;&#9;c0.3,0,0.4,0.2,0.4,0.5c0,0.3,0,0.5-0.1,0.5L1135.4,164.1z" style="fill: rgb(255, 199, 15); opacity: 1; fill-opacity: 1; stroke: rgb(255, 182, 25); stroke-width: 3;"/>
	<path class="st5" d="M1136.6,163.8c-0.1-0.3-0.2-0.6-0.3-1l0.7,0.3L1136.6,163.8z" style="fill: rgb(255, 199, 15); opacity: 1; fill-opacity: 1; stroke: rgb(255, 182, 25); stroke-width: 3;"/>
	<path class="st5" d="M1355.2,156.7c-0.1,0-0.2,0-0.3-0.1c0,0,0-0.5,0.1-0.5C1355.3,155.9,1355.4,156.1,1355.2,156.7z" style="fill: rgb(255, 199, 15); opacity: 1; fill-opacity: 1; stroke: rgb(255, 182, 25); stroke-width: 3;"/>
</g></g><g transform="matrix(4.188107490539551, 0, 0, 4.188107490539551, -174.0832422718695, -2556.838781212299)"><g id="g-1" transform="matrix(1, 0, 0, 1, 0, 0)">
	<g id="g-2">
		<path class="st0" d="M103,620l16.5,30.2l33.5,6.5l-23.3,25.1l4.2,34.2L103,701.4L72.1,716l4.2-34.2L53,656.7l33.5-6.5L103,620" style="fill: rgb(255, 168, 193);"/>
	</g>
</g></g><g transform="matrix(1.9846088886260986, 0, 0, 1.9846088886260986, -2212.8189239501953, -1235.3943176269531)"><g transform="matrix(1, 0, 0, 1, 0, 0)">
	<path class="st5" d="M1197,840.9c4.6-2.1,12.5-6.6,19.4-9.8C1206.3,836.7,1200.6,839.5,1197,840.9c-1.8,1.1-3.4,2-4.8,2.9&#10;&#9;&#9;c-0.8,0.4-1.5,0.9-2.2,1.3c-1.2,0.6-2.3,1.3-3.4,1.9c-4.6,2.5-9.3,5-15.9,8.4c0.6-3.1,1.2-6.7,2-10.8c0.4-2,0.8-4.2,1.2-6.5&#10;&#9;&#9;c0.4-1.9,0.8-4,1.2-6.2c2.2-16,5.4-33.8,8.4-50.7c0.5-2.9,1-5.7,1.5-8.6c-8.7-8.6-17.4-17.2-26-25.7&#10;&#9;&#9;c-10.9-10.8-21.7-21.6-32.6-32.3c0.6-0.1,1.1-0.1,1.6-0.2c26.1-3.6,53.6-7.3,80.8-11.1c1.8-3.6,3.6-7.1,5.3-10.6&#10;&#9;&#9;c7.1-14.2,14.3-28.7,21.4-43c3.3-6.6,5.7-12,6.3-14c0.6-2-1.4,1.4-4.3,6.8c-3.4,6.3-6.8,13-10.7,20.8&#10;&#9;&#9;c-6.4,12.7-12.8,25.5-19.2,38.2c-28.4,3.9-56.8,7.9-84.9,11.8c7,6.9,13.9,13.8,20.9,20.6c4.3,4.3,8.6,8.6,13,12.9&#10;&#9;&#9;c8.1,8.1,16.3,16.4,24.5,24.4l2.1,2c-4.9,28.5-9.8,56.9-14.7,85.3c25.5-13.4,51.1-26.7,76.6-40.1c25.6,13.5,51.3,27.1,77,40.6&#10;&#9;&#9;c-0.2-1.3-0.4-2.6-0.7-3.9c-4.7-27.3-9.3-54.5-14-81.8c20.7-20.2,41.5-40.5,62.2-60.7c-7.7-1.1-15.3-2.2-23-3.3&#10;&#9;&#9;c-11.4-1.6-22.9-3.2-34.3-4.9c-5.5-0.8-10.9-1.5-16.3-2.3c-2.7-0.4-5.4-0.7-8-1.1c-1.3-0.2-2.7-0.4-4-0.5l-0.5-0.1&#10;&#9;&#9;c-0.1,0-0.1,0-0.1,0l0,0l-0.1,0l-0.2,0c-3.7-7-7.2-13.9-10.7-20.5c-3.9-7.5-7.8-14.7-11.5-21.3c-1.1-2.1-2.8-5.3-4.2-8.1&#10;&#9;&#9;c-4-7.7-9-17.6-8.5-15.1c0.6,2.6,6,13.1,9.9,21c7.7,15.6,15.4,31.2,23.1,46.7c27,4,54.1,7.9,81.1,11.9l-58.9,57.2l5,29.3&#10;&#9;&#9;c1.3,7.5,3,16.4,4.2,26.7c-3.6-20.4-6.7-38-9.4-54c-0.1-0.7-0.2-1.5-0.4-2.2c19.3-18.9,38.5-37.6,57.6-56.4&#10;&#9;&#9;c-26.7-3.8-53.3-7.5-80-11.3l-0.1-0.2c-1.9-3.7-3.7-7.4-5.5-10.9c-1.9-3.8-3.8-7.4-5.6-10.9c-3.6-6.9-7-13.2-10-18.4&#10;&#9;&#9;c-1.8-3.2-2.4-3.8-1.5-1.5c0.9,2.4,3,6.8,5.4,11.6c5.3,10.7,10.7,21.4,16,32.1c11.4,1.6,22.8,3.2,34.1,4.8c14.4,2,28.8,4,43.3,6.1&#10;&#9;&#9;c-18.5,18.1-37.1,36.3-55.7,54.5c0.9,5.2,1.8,10.4,2.7,15.5l10.5,61.4c-23-12.2-46.1-24.3-69.1-36.5c-18,9.4-35.9,18.8-53.9,28.2&#10;&#9;&#9;c-4.9,2.6-9.9,5.1-14.8,7.7c1.2-6.9,2.5-13.8,3.7-20.9c1.3-6.9,2.6-13.8,3.9-20.9c-0.7,5.9-1.5,10.1-2.2,14.2l-4.6,26.4&#10;&#9;&#9;c11.2-5.9,22.3-11.7,33.5-17.6c11.5-6.1,22.9-12.1,34.4-18.2c5.7,3,11.4,5.9,17.1,8.9c16.8,8.8,33.6,17.6,50.4,26.3&#10;&#9;&#9;c-2.3-13.5-4.7-27.1-7-40.6c-2.1-11.7-4.1-23.2-6.1-34.7c9.3-9.3,18.6-18.5,27.9-27.7c8.3-8.3,16.6-16.5,24.9-24.8&#10;&#9;&#9;c-7.1-0.9-14.2-1.9-21.3-2.8c-8.3-1.1-16.5-2.3-24.9-3.4c-4.7-0.6-9.3-1.3-13.8-1.9c-5-0.6-9.8-1.3-14.5-1.9&#10;&#9;&#9;c-0.8-1.5-1.5-2.9-2.3-4.4c-0.6-1.1-1.1-2.1-1.7-3.1c-1.1-2.1-2.2-4.1-3.3-6.1c-2.2-4-4.2-7.8-6.2-11.5c-4.6-8.5-5.6-8.5-1.9-1&#10;&#9;&#9;c3.6,7.4,6.1,12.5,7.9,16.6c0.9,2,1.6,3.7,2.3,5.3c0.2,0.4,0.3,0.8,0.5,1.2c0.3,0.7,0.6,1.3,0.9,2c0.6,1.3,1.2,2.6,1.7,3.9&#10;&#9;&#9;c1.7,0.3,3.4,0.7,5.2,1c0.6,0.1,1.3,0.3,2.2,0.4c0.6,0.1,1.3,0.2,2.1,0.4c1.5,0.3,3.3,0.5,5.2,0.8c3.8,0.5,8.1,1.1,11.8,1.6&#10;&#9;&#9;c8.8,1.2,17.6,2.4,26.4,3.6c4.4,0.6,8.8,1.2,13.2,1.9l1.8,0.2c-4.8,4.7-9.7,9.4-14.6,14.1c-5.4,5.2-10.9,10.6-16.3,15.9&#10;&#9;&#9;c-6.1,6-12.2,12-18.4,18c3.9,22.6,7.8,45.3,11.8,68c-2.1-1.1-4.2-2.2-6.3-3.3c-13.4-7.1-26.9-14.3-40.2-21.2&#10;&#9;&#9;c-4.8-2.5-9.7-5-14.5-7.6c-12.2,6.5-24.5,13-36.7,19.5c-5.7,3-11.4,6-17.1,9l-6,3.2l-1.4,0.7l0.2-1.2c3.9-22.3,7.8-44.7,11.7-67&#10;&#9;&#9;c-2.7-2.6-5.4-5.3-8.1-7.9c-6-5.9-12.2-12-17.8-17.6c-5.1-5.1-10.2-10.2-15.5-15.4c-2.2-2.1-4.3-4.3-6.5-6.4l-0.4-0.5l0.7-0.1&#10;&#9;&#9;c4.1-0.6,8.3-1.2,12.4-1.8c8.4-1.2,16.7-2.3,24.8-3.3c2.2-0.3,5.1-0.7,7.4-1.1c4-0.6,8.2-1.3,11.7-1.9c1.9-0.4,3.7-0.7,5.1-0.9&#10;&#9;&#9;c2.4-0.4,4.2-0.8,5.1-1.1c0,0,0-0.1,0-0.1c0.4-1.1,0.2-1.1-0.3-0.2c-0.8,0-2,0.2-3.5,0.3c-0.8,0.1-1.6,0.2-2.5,0.3&#10;&#9;&#9;c-0.5,0.1-1.1,0.1-1.7,0.2c-2.4,0.3-5.2,0.6-8.1,0.9c-2.2,0.3-4.5,0.5-6.9,0.8c-9.4,1.3-18.8,2.5-28.3,3.8&#10;&#9;&#9;c-4.7,0.6-9.5,1.3-14.2,1.9c-1.9,0.3-3.9,0.5-5.9,0.8c0.9,0.9,1.8,1.8,2.8,2.8c2.4,2.3,4.7,4.6,7.1,7&#10;&#9;&#9;c13.6,13.3,27.2,26.6,40.8,39.9c-2.3,13.4-4.7,26.8-7,40.2c-1.1,6.3-2.2,12.7-3.3,19l-1.3,7.5l-0.8,4.1c1-0.5,2.1-1,3.1-1.6&#10;&#9;&#9;l1.6-0.8l3.3-1.7c9-4.6,18-9.3,27-13.9c9.5-4.9,19-9.9,28.5-14.8c11.8,6.3,23.7,12.6,35.6,18.8c9.6,5,19.2,10.1,28.8,15.2&#10;&#9;&#9;c-2.8-16.2-5.7-32.5-8.5-48.8c-0.6-3.5-1.6-8.6-1.5-10c0.8,3.6,1.7,8.6,2.6,13.5c2.7,15.4,5.3,30.7,8,46.1&#10;&#9;&#9;c-9.9-5.2-19.7-10.3-29.5-15.5c-11.8-6.2-23.6-12.3-35.4-18.5c-21.8,11.5-43.5,23-65.3,34.5c3.1-18.4,6.3-36.8,9.4-55.2l3-17.5&#10;&#9;&#9;c-9.5-9.3-19.1-18.6-28.6-27.9c-8.1-7.9-16.1-15.8-24.1-23.6c11.3-1.6,22.5-3.1,33.7-4.7c13.3-1.8,26.5-3.6,39.7-5.4&#10;&#9;&#9;c1.7-3.3,3.4-6.6,5-9.9c1.4-2.8,2.9-5.6,4.3-8.4c2.7-5.2,5.2-10.3,7.8-15.6c4.1-8.4,5.6-12,2.2-5.9c-4.4,7.8-3.9,6.3,0.1-2.6&#10;&#9;&#9;c3.6-8.1,0.6-4.9-4.7,5.2c-6,11.3-11.7,22.1-17.6,33.3c-3,0.4-6.1,0.7-9.1,1.1c-3.3,0.4-6.6,0.8-10,1.2c-6.8,0.8-13.7,1.7-21,2.7&#10;&#9;&#9;c-13.9,1.8-27.8,3.7-41.2,5.4c3.2,3.2,6.3,6.4,9.4,9.4c8.1,8.2,16.3,16.4,24.6,24.8c7.6,7.5,15.2,15.1,23,22.9&#10;&#9;&#9;c-1,6-2.1,12-3.2,18.1c-2.5,14.2-5,27.9-7.5,41.4c-1.2,7.5-2.5,15.1-3.8,22.8C1179.7,850,1188.4,845.4,1197,840.9z M1188.3,779.4&#10;&#9;&#9;c0.3-2.2,0.8-4.6,1.2-7c0.1-0.6,0.2-1.1,0.3-1.5c-0.7-0.7-0.9-1-0.2-0.4c0.1,0.1,0.3,0.2,0.4,0.4c-0.2,1.2-0.4,2.7-0.6,4.2&#10;&#9;&#9;c-0.2,1.4-0.5,2.9-0.8,4.3C1188.2,780.8,1188.1,781,1188.3,779.4z" style="fill: rgb(255, 203, 15); opacity: 1;"/>
</g></g><path d="M 611.0498046875 426.1099548339844 C 611.096435546875 425.6966247558594 611.2230834960938 425.3533020019531 611.4297485351562 425.0799560546875 C 611.636474609375 424.806640625 611.9364624023438 424.6099548339844 612.3297729492188 424.4899597167969 C 612.7230834960938 424.3699645996094 613.1130981445312 424.28997802734375 613.499755859375 424.2499694824219 C 613.8797607421875 424.2099609375 614.366455078125 424.1899719238281 614.9597778320312 424.1899719238281 C 615.6331176757812 422.73663330078125 616.4797973632812 419.83331298828125 617.499755859375 415.47998046875 C 618.5264282226562 411.12664794921875 619.136474609375 408.6799621582031 619.3297729492188 408.1399841308594 C 617.203125 408.1866455078125 615.4031372070312 408.3466491699219 613.9297485351562 408.6199645996094 C 614.1497802734375 407.3866271972656 615.7664184570312 406.76995849609375 618.77978515625 406.76995849609375 C 618.7930908203125 406.76995849609375 618.8064575195312 406.76995849609375 618.8197631835938 406.76995849609375 C 620.759765625 406.76995849609375 622.8564453125 406.9366455078125 625.1098022460938 407.26995849609375 C 624.5498046875 407.8299560546875 623.789794921875 408.1099548339844 622.8297729492188 408.1099548339844 C 622.8164672851562 408.1099548339844 622.7998046875 408.1099548339844 622.77978515625 408.1099548339844 C 621.5330810546875 408.1099548339844 620.6630859375 408.1199645996094 620.1697998046875 408.1399841308594 C 618.9830932617188 414.5066223144531 618.1897583007812 418.49664306640625 617.789794921875 420.1099548339844 C 617.2297973632812 422.316650390625 616.5597534179688 423.6866455078125 615.77978515625 424.219970703125 C 616.2398071289062 424.24664306640625 617.0831298828125 424.3266296386719 618.3097534179688 424.4599609375 C 619.52978515625 424.5866394042969 620.4197998046875 424.6566467285156 620.9797973632812 424.66998291015625 C 620.2930908203125 425.35662841796875 619.3897705078125 425.6999816894531 618.269775390625 425.6999816894531 L 616.8097534179688 425.6999816894531 C 616.0231323242188 425.6999816894531 615.4898071289062 425.7099609375 615.2097778320312 425.72998046875 C 614.9297485351562 425.7433166503906 614.499755859375 425.7633056640625 613.9197998046875 425.78997802734375 C 613.3331298828125 425.8099670410156 612.8197631835938 425.8499755859375 612.3797607421875 425.90997314453125 C 611.9397583007812 425.96331787109375 611.4964599609375 426.02996826171875 611.0498046875 426.1099548339844 ZM 623.3508911132812 424.8899841308594 C 623.3508911132812 424.64996337890625 623.4642333984375 424.2099609375 623.6908569335938 423.5699768066406 C 625.7042236328125 417.3432922363281 627.7275390625 411.9266357421875 629.7608642578125 407.3199768066406 C 629.1675415039062 407.4132995605469 628.5975341796875 407.5766296386719 628.0509033203125 407.8099670410156 C 627.49755859375 408.0433044433594 627.064208984375 408.24664306640625 626.7509155273438 408.41998291015625 C 626.4375610351562 408.5999755859375 626.2509155273438 408.6899719238281 626.1908569335938 408.6899719238281 C 626.0775756835938 408.6899719238281 625.9241943359375 408.6099548339844 625.7308959960938 408.4499816894531 C 625.5375366210938 408.28997802734375 625.4408569335938 408.1532897949219 625.4408569335938 408.03997802734375 C 627.4742431640625 407.15997314453125 629.2742309570312 406.719970703125 630.8408813476562 406.719970703125 C 631.834228515625 406.719970703125 632.7708740234375 406.8633117675781 633.65087890625 407.14996337890625 C 634.5308837890625 407.4366455078125 635.294189453125 407.93328857421875 635.9408569335938 408.6399841308594 C 636.5875244140625 409.3466491699219 636.910888671875 410.20330810546875 636.910888671875 411.2099609375 C 636.910888671875 412.1033020019531 636.6475830078125 412.8899841308594 636.1209106445312 413.5699768066406 C 635.59423828125 414.2499694824219 634.9742431640625 414.7633056640625 634.2608642578125 415.1099548339844 C 633.5475463867188 415.4499816894531 632.7308959960938 415.72998046875 631.8109130859375 415.9499816894531 C 630.890869140625 416.1632995605469 630.1375732421875 416.2933044433594 629.5509033203125 416.3399658203125 C 628.9575805664062 416.393310546875 628.4275512695312 416.41998291015625 627.9608764648438 416.41998291015625 L 628.90087890625 418.01995849609375 L 629.8609008789062 419.72998046875 C 630.0675659179688 420.08331298828125 630.390869140625 420.5899658203125 630.8308715820312 421.2499694824219 C 631.2708740234375 421.9166259765625 631.6775512695312 422.469970703125 632.0509033203125 422.90997314453125 C 632.430908203125 423.3499755859375 632.9075317382812 423.85662841796875 633.4808959960938 424.4299621582031 C 634.0609130859375 425.0099792480469 634.6775512695312 425.5699768066406 635.3308715820312 426.1099548339844 C 635.237548828125 426.316650390625 635.064208984375 426.4999694824219 634.8109130859375 426.65997314453125 C 634.564208984375 426.8199768066406 634.3308715820312 426.89996337890625 634.1109008789062 426.89996337890625 C 633.5509033203125 426.89996337890625 632.814208984375 426.3266296386719 631.90087890625 425.1799621582031 C 630.987548828125 424.0266418457031 630.1442260742188 422.74664306640625 629.3709106445312 421.3399658203125 C 628.5908813476562 419.9266357421875 627.9375610351562 418.5966491699219 627.410888671875 417.3499755859375 L 624.9408569335938 426.0899658203125 C 624.5208740234375 426.0899658203125 624.15087890625 425.9732971191406 623.8308715820312 425.7399597167969 C 623.5108642578125 425.5066223144531 623.3508911132812 425.2232971191406 623.3508911132812 424.8899841308594 M 627.7908935546875 416.02996826171875 C 629.0575561523438 415.9499816894531 630.2308959960938 415.72998046875 631.3109130859375 415.3699645996094 C 632.390869140625 415.0099792480469 633.3275756835938 414.4266357421875 634.1209106445312 413.6199645996094 C 634.9142456054688 412.81329345703125 635.3109130859375 411.8399658203125 635.3109130859375 410.6999816894531 C 635.3109130859375 409.48663330078125 634.8975830078125 408.6033020019531 634.0708618164062 408.0499572753906 C 633.2442016601562 407.49664306640625 632.2242431640625 407.219970703125 631.0108642578125 407.219970703125 C 630.0509033203125 409.12664794921875 628.9775390625 412.06329345703125 627.7908935546875 416.02996826171875 Z" transform="matrix(8.791399002075195, -0.15781497955322266, 0.15781497955322266, 8.791399002075195, -5294.0146484375, -3299.503662109375)" style="fill: rgb(255, 251, 240); white-space: pre; color: rgb(79, 78, 74);"/></svg>