<?xml version="1.0" encoding="utf-8"?>
<svg id="master-artboard" viewBox="0 0 197.52748107910156 204.24659729003906" version="1.1" xmlns="http://www.w3.org/2000/svg" x="0px" y="0px" style="enable-background:new 0 0 1400 980;" width="197.52748107910156px" height="204.24659729003906px"><rect id="ee-background" x="0" y="0" width="197.52748107910156" height="204.24659729003906" style="fill: white; fill-opacity: 0; pointer-events: none;"/><defs><style id="ee-google-fonts">@import url(https://fonts.googleapis.com/css?family=Fjalla+One:400|Roboto:100,100italic,300,300italic,400,400italic,500,500italic,700,700italic,900,900italic);</style></defs>

































































































<g transform="matrix(0.4151146411895752, 0, 0, 0.4151146411895752, -37.58074951171875, 0.10055732727050781)"><g transform="matrix(1, 0, 0, 1, 1.7905676941154525e-12, 4.405364961712621e-13)">
		<path d="M 371.79998779296875 210.5 L 328.5 122.80000305175781 L 285.20001220703125 210.5 L 188.39999389648438 224.60000610351562 L 258.3999938964844 292.8999938964844 L 241.89999389648438 389.29998779296875 L 328.5 343.79998779296875 L 415.1000061035156 389.29998779296875 L 398.5 292.8999938964844 L 468.6000061035156 224.60000610351562 Z" class="st6" style="fill: none;"/>
		<path d="M 188.39999389648438 224.60000610351562 L 95.4000015258789 194.39999389648438 L 212 308 L 258.3999938964844 292.8999938964844 Z" class="st7" style="fill: rgb(126, 194, 67);"/>
		<path d="M 285.20001220703125 210.5 L 256.5 171 L 95.4000015258789 194.39999389648438 L 188.39999389648438 224.60000610351562 Z" class="st8" style="fill: rgb(20, 164, 91);"/>
		<path d="M 328.5 122.80000305175781 L 328.5 25.100000381469727 L 256.5 171 L 285.20001220703125 210.5 Z" class="st9" style="fill: rgb(0, 174, 240);"/>
		<path d="M 371.79998779296875 210.5 L 400.5 171 L 328.5 25.100000381469727 L 328.5 122.80000305175781 Z" class="st10" style="fill: rgb(10, 79, 163);"/>
		<path d="M 468.6000061035156 224.60000610351562 L 561.5 194.39999389648438 L 400.5 171 L 371.79998779296875 210.5 Z" class="st11" style="fill: rgb(115, 48, 146);"/>
		<path d="M 398.5 292.8999938964844 L 445 308 L 561.5 194.39999389648438 L 468.6000061035156 224.60000610351562 Z" class="st12" style="fill: rgb(232, 48, 148);"/>
		<path d="M 398.5 292.8999938964844 L 415.1000061035156 389.29998779296875 L 472.5 468.3999938964844 L 445 308 Z" class="st13" style="fill: rgb(231, 41, 32);"/>
		<path d="M 328.5 343.79998779296875 L 328.5 392.70001220703125 L 472.5 468.3999938964844 L 415.1000061035156 389.29998779296875 Z" class="st14" style="fill: rgb(245, 129, 33);"/>
		<path d="M 241.89999389648438 389.29998779296875 L 184.5 468.3999938964844 L 328.5 392.70001220703125 L 328.5 343.79998779296875 Z" class="st15" style="fill: rgb(255, 216, 0);"/>
		<path d="M 258.3999938964844 292.8999938964844 L 212 308 L 184.5 468.3999938964844 L 241.89999389648438 389.29998779296875 Z" class="st16" style="fill: rgb(201, 204, 44);"/>
	</g></g></svg>